<?xml version="1.0" encoding="UTF-8"?>
<svg id="Layer_2" data-name="Layer 2" xmlns="http://www.w3.org/2000/svg" viewBox="0 0 512 512">
  <defs>
    <style>
      .cls-1 {
        fill: #ffec00;
      }
    </style>
  </defs>
  <g id="Layer_1-2" data-name="Layer 1">
    <g>
      <rect class="cls-1" x="0" y="0" width="512" height="512"/>
      <g>
        <rect x="55.75" y="271.39" width="400.5" height="26.7"/>
        <g>
          <path d="M157.49,226.91v-25.94c9.5-7.79,18.89-15.5,28.16-23.14,9.27-7.63,17.61-15.23,25.01-22.79,7.4-7.56,13.32-14.96,17.76-22.2,4.44-7.25,6.66-14.22,6.66-20.92,0-3.89-.78-7.52-2.34-10.87-1.56-3.35-3.86-6-6.9-7.95-3.04-1.95-6.98-2.92-11.8-2.92s-9.2,1.09-12.62,3.27c-3.43,2.18-5.96,5.18-7.6,9-1.64,3.82-2.45,8.22-2.45,13.2h-33.89c.31-12.46,3.04-22.82,8.18-31.09,5.14-8.26,12.04-14.33,20.69-18.23,8.65-3.89,18.19-5.84,28.63-5.84,12.15,0,22.28,2.22,30.39,6.66,8.1,4.44,14.26,10.36,18.46,17.76,4.21,7.4,6.31,15.7,6.31,24.89,0,7.01-1.28,13.83-3.86,20.45-2.57,6.63-6.04,13.01-10.4,19.17-4.36,6.16-9.31,12.08-14.84,17.76-5.53,5.69-11.34,11.14-17.41,16.36-6.08,5.22-12.08,10.17-18,14.84h67.78v28.51h-115.93Z"/>
          <path d="M318.05,226.91v-123.17l-28.98,7.71v-28.51l44.41-19.63h21.04v163.61h-36.46Z"/>
        </g>
        <path d="M197.49,451.5c-15.74,0-28.83-4.72-39.29-14.16-10.45-9.44-15.68-22.59-15.68-39.46,0-11.91,2.47-21.97,7.42-30.18,4.94-8.2,11.69-14.44,20.23-18.72,8.54-4.27,17.98-6.41,28.33-6.41s19.33,1.85,26.98,5.56c7.64,3.71,14.44,8.55,20.4,14.5,5.95,5.96,11.35,12.26,16.19,18.88,4.83,6.63,9.61,12.93,14.33,18.88,4.72,5.96,9.72,10.85,15.01,14.67,5.28,3.83,11.3,5.73,18.04,5.73s12.7-2.13,17.2-6.41c4.49-4.27,6.74-10.12,6.74-17.54s-2.08-13.43-6.24-17.37c-4.16-3.93-9.61-5.9-16.36-5.9-8.55,0-16.64,3.04-24.28,9.11-7.65,6.07-13.49,14.28-17.54,24.62l-22.26-10.12c2.47-9.66,6.74-18.6,12.81-26.81,6.07-8.2,13.71-14.95,22.93-20.23,9.22-5.28,19.78-7.81,31.7-7.59,15.96,0,29.17,4.72,39.62,14.16,10.45,9.44,15.68,22.59,15.68,39.46,0,11.69-2.48,21.7-7.42,30.01-4.95,8.32-11.75,14.62-20.4,18.88-8.66,4.27-18.27,6.41-28.83,6.41s-19.45-1.85-27.32-5.56c-7.87-3.71-14.95-8.54-21.25-14.5-6.3-5.95-12.03-12.25-17.2-18.88-5.17-6.63-10.17-12.93-15.01-18.88-4.84-5.95-9.84-10.84-15.01-14.67-5.17-3.82-10.79-5.73-16.86-5.73s-11.24,2.08-15.51,6.24c-4.27,4.16-6.41,10.06-6.41,17.7s2.08,13.15,6.24,17.2c4.16,4.05,9.61,6.07,16.36,6.07,8.77,0,16.91-3.09,24.45-9.27,7.53-6.18,13.32-14.33,17.37-24.45l21.92,10.12c-2.25,9.22-6.41,18.04-12.48,26.47-6.07,8.43-13.66,15.23-22.76,20.4-9.11,5.17-19.73,7.76-31.87,7.76Z"/>
      </g>
    </g>
  </g>
</svg>