<?xml version="1.0" encoding="UTF-8"?>
<svg id="Layer_2" data-name="Layer 2" xmlns="http://www.w3.org/2000/svg" viewBox="0 0 512 512">
  <defs>
    <style>
      .cls-1 {
        fill: #ffec00;
      }
    </style>
  </defs>
  <g id="Layer_1-2" data-name="Layer 1">
    <g>
      <rect class="cls-1" width="512" height="512"/>
      <g>
        <rect x="96" y="224.47" width="320" height="20"/>
        <g>
          <path d="M180.21,422.29v-19.43c7.12-5.83,14.15-11.61,21.1-17.33,6.94-5.72,13.19-11.41,18.73-17.07,5.54-5.66,9.98-11.2,13.31-16.63,3.33-5.43,4.99-10.65,4.99-15.67,0-2.92-.58-5.63-1.75-8.14-1.17-2.51-2.89-4.49-5.17-5.95-2.28-1.46-5.22-2.19-8.84-2.19s-6.89.82-9.45,2.45c-2.57,1.64-4.46,3.88-5.69,6.74-1.23,2.86-1.84,6.16-1.84,9.89h-25.39c.23-9.34,2.28-17.1,6.13-23.28,3.85-6.18,9.02-10.74,15.49-13.66,6.48-2.92,13.63-4.38,21.45-4.38,9.1,0,16.69,1.66,22.76,4.99,6.07,3.33,10.68,7.76,13.83,13.31,3.15,5.54,4.73,11.76,4.73,18.64,0,5.25-.96,10.36-2.89,15.32-1.93,4.96-4.52,9.75-7.79,14.36-3.27,4.61-6.98,9.05-11.12,13.31-4.14,4.26-8.49,8.35-13.04,12.26-4.55,3.91-9.05,7.62-13.48,11.12h50.77v21.36h-86.84Z"/>
          <path d="M300.48,422.29v-92.26l-21.71,5.78v-21.36l33.26-14.71h15.76v122.55h-27.31Z"/>
        </g>
        <path d="M212.17,89.71c-11.79,0-21.6,3.54-29.43,10.61-7.83,7.07-11.75,16.92-11.75,29.55,0,8.92,1.85,16.46,5.56,22.61,3.7,6.15,8.75,10.82,15.16,14.02,6.4,3.2,13.47,4.8,21.22,4.8s14.48-1.39,20.21-4.17c5.72-2.78,10.82-6.4,15.28-10.86,4.46-4.46,8.5-9.18,12.12-14.15,3.62-4.97,7.2-9.69,10.74-14.15,3.54-4.46,7.28-8.13,11.24-10.99,3.95-2.87,8.46-4.29,13.51-4.29s9.51,1.6,12.88,4.8c3.37,3.2,5.05,7.58,5.05,13.14s-1.56,10.06-4.67,13.01c-3.12,2.94-7.2,4.42-12.25,4.42-6.4,0-12.46-2.27-18.19-6.82-5.73-4.55-10.1-10.7-13.14-18.44l-16.67,7.58c1.85,7.24,5.05,13.93,9.6,20.08,4.55,6.15,10.27,11.2,17.18,15.16,6.9,3.95,14.82,5.85,23.74,5.68,11.96,0,21.85-3.54,29.68-10.61,7.83-7.07,11.75-16.92,11.75-29.55,0-8.76-1.86-16.25-5.56-22.48-3.71-6.23-8.8-10.95-15.28-14.15-6.48-3.2-13.68-4.8-21.6-4.8s-14.57,1.39-20.46,4.17c-5.9,2.78-11.2,6.4-15.91,10.86-4.72,4.46-9.01,9.18-12.88,14.15-3.88,4.97-7.62,9.68-11.24,14.15-3.62,4.46-7.37,8.12-11.24,10.99-3.88,2.86-8.08,4.29-12.63,4.29s-8.42-1.56-11.62-4.67c-3.2-3.12-4.8-7.54-4.8-13.26s1.56-9.85,4.67-12.88c3.11-3.03,7.2-4.55,12.25-4.55,6.57,0,12.67,2.31,18.31,6.95,5.64,4.63,9.98,10.74,13.01,18.31l16.42-7.58c-1.69-6.91-4.8-13.51-9.35-19.83s-10.23-11.41-17.05-15.28c-6.82-3.88-14.78-5.81-23.87-5.81Z"/>
      </g>
    </g>
  </g>
</svg>